<mxfile host="app.diagrams.net" modified="2023-09-28T13:37:46.499Z" agent="Mozilla/5.0 (Windows NT 10.0; Win64; x64) AppleWebKit/537.36 (KHTML, like Gecko) Chrome/117.0.0.0 Safari/537.36" etag="zj2tB3NGu8fQg4BEoYi1" version="21.8.2" type="github">
  <diagram name="Страница — 1" id="trk0Az9itriv0VP6-qi4">
    <mxGraphModel dx="1050" dy="630" grid="1" gridSize="10" guides="1" tooltips="1" connect="1" arrows="1" fold="1" page="1" pageScale="1" pageWidth="827" pageHeight="1169" background="#6BFFBF" math="0" shadow="0">
      <root>
        <mxCell id="0" />
        <mxCell id="1" parent="0" />
        <mxCell id="WVBzOitKBOi65Sc1-QXD-2" value="Архитектура WebTours&lt;br&gt;" style="rounded=1;whiteSpace=wrap;html=1;" parent="1" vertex="1">
          <mxGeometry x="120" y="20" width="630" height="60" as="geometry" />
        </mxCell>
        <mxCell id="WVBzOitKBOi65Sc1-QXD-18" style="edgeStyle=orthogonalEdgeStyle;rounded=0;orthogonalLoop=1;jettySize=auto;html=1;exitX=1;exitY=0.5;exitDx=0;exitDy=0;entryX=0;entryY=0.5;entryDx=0;entryDy=0;" parent="1" source="WVBzOitKBOi65Sc1-QXD-3" target="WVBzOitKBOi65Sc1-QXD-5" edge="1">
          <mxGeometry relative="1" as="geometry" />
        </mxCell>
        <mxCell id="WVBzOitKBOi65Sc1-QXD-3" value="Браузер CHROME" style="whiteSpace=wrap;html=1;aspect=fixed;" parent="1" vertex="1">
          <mxGeometry x="40" y="320" width="80" height="80" as="geometry" />
        </mxCell>
        <mxCell id="WVBzOitKBOi65Sc1-QXD-19" style="edgeStyle=orthogonalEdgeStyle;rounded=0;orthogonalLoop=1;jettySize=auto;html=1;exitX=0;exitY=0.75;exitDx=0;exitDy=0;entryX=1;entryY=0.75;entryDx=0;entryDy=0;" parent="1" source="WVBzOitKBOi65Sc1-QXD-5" target="WVBzOitKBOi65Sc1-QXD-3" edge="1">
          <mxGeometry relative="1" as="geometry" />
        </mxCell>
        <mxCell id="WVBzOitKBOi65Sc1-QXD-5" value="WebTours&lt;br&gt;Server" style="whiteSpace=wrap;html=1;aspect=fixed;" parent="1" vertex="1">
          <mxGeometry x="670" y="320" width="80" height="80" as="geometry" />
        </mxCell>
        <mxCell id="WVBzOitKBOi65Sc1-QXD-11" value="" style="endArrow=classic;html=1;rounded=0;exitX=0;exitY=0.5;exitDx=0;exitDy=0;entryX=0;entryY=0.5;entryDx=0;entryDy=0;" parent="1" source="WVBzOitKBOi65Sc1-QXD-5" target="WVBzOitKBOi65Sc1-QXD-5" edge="1">
          <mxGeometry relative="1" as="geometry">
            <mxPoint x="440" y="360" as="sourcePoint" />
            <mxPoint x="460" y="330" as="targetPoint" />
          </mxGeometry>
        </mxCell>
        <mxCell id="WVBzOitKBOi65Sc1-QXD-15" value="HTTP/HTTPS" style="text;html=1;align=center;verticalAlign=middle;resizable=0;points=[];autosize=1;strokeColor=none;fillColor=none;" parent="1" vertex="1">
          <mxGeometry x="190" y="320" width="100" height="30" as="geometry" />
        </mxCell>
        <mxCell id="WVBzOitKBOi65Sc1-QXD-17" value="HTTP/HTTPS" style="text;html=1;align=center;verticalAlign=middle;resizable=0;points=[];autosize=1;strokeColor=none;fillColor=none;" parent="1" vertex="1">
          <mxGeometry x="520" y="320" width="100" height="30" as="geometry" />
        </mxCell>
      </root>
    </mxGraphModel>
  </diagram>
</mxfile>
